<?xml version="1.0" encoding="UTF-8" standalone="no"?>
<!DOCTYPE svg PUBLIC "-//W3C//DTD SVG 1.1//EN"
 "http://www.w3.org/Graphics/SVG/1.1/DTD/svg11.dtd">
<!-- Generated by graphviz version 2.40.1 (20161225.0304)
 -->
<!-- Title: dependencies Pages: 1 -->
<svg width="504pt" height="284pt"
 viewBox="0.00 0.00 504.00 284.00" xmlns="http://www.w3.org/2000/svg" xmlns:xlink="http://www.w3.org/1999/xlink">
<g id="graph0" class="graph" transform="scale(1 1) rotate(0) translate(4 280)">
<title>dependencies</title>
<polygon fill="#ffffff" stroke="transparent" points="-4,4 -4,-280 500,-280 500,4 -4,4"/>
<text text-anchor="start" x="227.0091" y="-42.4" font-family="sans-serif" font-weight="bold" font-size="14.00" fill="#000000">Legend</text>
<polygon fill="#ffffb3" stroke="transparent" points="14,-10 14,-30 34,-30 34,-10 14,-10"/>
<text text-anchor="start" x="37.629" y="-15.4" font-family="sans-serif" font-size="14.00" fill="#000000"> &#160;Declarations</text>
<polygon fill="#8dd3c7" stroke="transparent" points="127,-10 127,-30 147,-30 147,-10 127,-10"/>
<text text-anchor="start" x="150.7251" y="-15.4" font-family="sans-serif" font-size="14.00" fill="#000000"> &#160;Module</text>
<polygon fill="#80b1d3" stroke="transparent" points="213,-10 213,-30 233,-30 233,-10 213,-10"/>
<text text-anchor="start" x="236.7812" y="-15.4" font-family="sans-serif" font-size="14.00" fill="#000000"> &#160;Bootstrap</text>
<polygon fill="#fdb462" stroke="transparent" points="310,-10 310,-30 330,-30 330,-10 310,-10"/>
<text text-anchor="start" x="333.6732" y="-15.4" font-family="sans-serif" font-size="14.00" fill="#000000"> &#160;Providers</text>
<polygon fill="#fb8072" stroke="transparent" points="406,-10 406,-30 426,-30 426,-10 406,-10"/>
<text text-anchor="start" x="429.7258" y="-15.4" font-family="sans-serif" font-size="14.00" fill="#000000"> &#160;Exports</text>
<g id="clust1" class="cluster">
<title>cluster_BlankModule</title>
<polygon fill="none" stroke="#000000" stroke-dasharray="1,5" points="94,-70 94,-268 402,-268 402,-70 94,-70"/>
</g>
<g id="clust2" class="cluster">
<title>cluster_BlankModule_declarations</title>
<polygon fill="none" stroke="#000000" points="264,-78 264,-130 394,-130 394,-78 264,-78"/>
</g>
<g id="clust4" class="cluster">
<title>cluster_BlankModule_imports</title>
<polygon fill="none" stroke="#000000" points="102,-78 102,-130 256,-130 256,-78 102,-78"/>
</g>
<g id="clust5" class="cluster">
<title>cluster_BlankModule_exports</title>
<polygon fill="none" stroke="#000000" points="186,-208 186,-260 320,-260 320,-208 186,-208"/>
</g>
<!-- BlankComponent -->
<g id="node1" class="node">
<title>BlankComponent</title>
<polygon fill="#ffffb3" stroke="#000000" points="386.2744,-122 271.7256,-122 271.7256,-86 386.2744,-86 386.2744,-122"/>
<text text-anchor="middle" x="329" y="-99.8" font-family="Times,serif" font-size="14.00" fill="#000000">BlankComponent</text>
</g>
<!-- BlankModule -->
<g id="node2" class="node">
<title>BlankModule</title>
<polygon fill="#8dd3c7" stroke="#000000" points="299.4916,-187 296.4916,-191 275.4916,-191 272.4916,-187 206.5084,-187 206.5084,-151 299.4916,-151 299.4916,-187"/>
<text text-anchor="middle" x="253" y="-164.8" font-family="Times,serif" font-size="14.00" fill="#000000">BlankModule</text>
</g>
<!-- BlankComponent&#45;&gt;BlankModule -->
<g id="edge1" class="edge">
<title>BlankComponent&#45;&gt;BlankModule</title>
<path fill="none" stroke="#000000" d="M285.5544,-122.1061C285.5544,-122.1061 285.5544,-140.991 285.5544,-140.991"/>
<polygon fill="#000000" stroke="#000000" points="282.0544,-140.9909 285.5544,-150.991 289.0544,-140.991 282.0544,-140.9909"/>
</g>
<!-- BlankComponent  -->
<g id="node4" class="node">
<title>BlankComponent </title>
<polygon fill="#fb8072" stroke="#000000" points="312.2745,-252 193.7255,-252 193.7255,-216 312.2745,-216 312.2745,-252"/>
<text text-anchor="middle" x="253" y="-229.8" font-family="Times,serif" font-size="14.00" fill="#000000">BlankComponent </text>
</g>
<!-- BlankModule&#45;&gt;BlankComponent  -->
<g id="edge3" class="edge">
<title>BlankModule&#45;&gt;BlankComponent </title>
<path fill="none" stroke="#000000" stroke-dasharray="5,2" d="M253,-187.1061C253,-187.1061 253,-205.991 253,-205.991"/>
<polygon fill="#000000" stroke="#000000" points="249.5001,-205.9909 253,-215.991 256.5001,-205.991 249.5001,-205.9909"/>
</g>
<!-- BlankRoutingModule -->
<g id="node3" class="node">
<title>BlankRoutingModule</title>
<polygon fill="#8dd3c7" stroke="#000000" points="248.1094,-122 245.1094,-126 224.1094,-126 221.1094,-122 109.8906,-122 109.8906,-86 248.1094,-86 248.1094,-122"/>
<text text-anchor="middle" x="179" y="-99.8" font-family="Times,serif" font-size="14.00" fill="#000000">BlankRoutingModule</text>
</g>
<!-- BlankRoutingModule&#45;&gt;BlankModule -->
<g id="edge2" class="edge">
<title>BlankRoutingModule&#45;&gt;BlankModule</title>
<path fill="none" stroke="#000000" d="M227.2795,-122.1061C227.2795,-122.1061 227.2795,-140.991 227.2795,-140.991"/>
<polygon fill="#000000" stroke="#000000" points="223.7795,-140.9909 227.2795,-150.991 230.7795,-140.991 223.7795,-140.9909"/>
</g>
</g>
</svg>
