<?xml version="1.0" encoding="UTF-8" standalone="no"?>
<!DOCTYPE svg PUBLIC "-//W3C//DTD SVG 1.1//EN"
 "http://www.w3.org/Graphics/SVG/1.1/DTD/svg11.dtd">
<!-- Generated by graphviz version 2.40.1 (20161225.0304)
 -->
<!-- Title: dependencies Pages: 1 -->
<svg width="504pt" height="284pt"
 viewBox="0.00 0.00 504.00 284.00" xmlns="http://www.w3.org/2000/svg" xmlns:xlink="http://www.w3.org/1999/xlink">
<g id="graph0" class="graph" transform="scale(1 1) rotate(0) translate(4 280)">
<title>dependencies</title>
<polygon fill="#ffffff" stroke="transparent" points="-4,4 -4,-280 500,-280 500,4 -4,4"/>
<text text-anchor="start" x="227.0091" y="-42.4" font-family="sans-serif" font-weight="bold" font-size="14.00" fill="#000000">Legend</text>
<polygon fill="#ffffb3" stroke="transparent" points="14,-10 14,-30 34,-30 34,-10 14,-10"/>
<text text-anchor="start" x="37.629" y="-15.4" font-family="sans-serif" font-size="14.00" fill="#000000"> &#160;Declarations</text>
<polygon fill="#8dd3c7" stroke="transparent" points="127,-10 127,-30 147,-30 147,-10 127,-10"/>
<text text-anchor="start" x="150.7251" y="-15.4" font-family="sans-serif" font-size="14.00" fill="#000000"> &#160;Module</text>
<polygon fill="#80b1d3" stroke="transparent" points="213,-10 213,-30 233,-30 233,-10 213,-10"/>
<text text-anchor="start" x="236.7812" y="-15.4" font-family="sans-serif" font-size="14.00" fill="#000000"> &#160;Bootstrap</text>
<polygon fill="#fdb462" stroke="transparent" points="310,-10 310,-30 330,-30 330,-10 310,-10"/>
<text text-anchor="start" x="333.6732" y="-15.4" font-family="sans-serif" font-size="14.00" fill="#000000"> &#160;Providers</text>
<polygon fill="#fb8072" stroke="transparent" points="406,-10 406,-30 426,-30 426,-10 406,-10"/>
<text text-anchor="start" x="429.7258" y="-15.4" font-family="sans-serif" font-size="14.00" fill="#000000"> &#160;Exports</text>
<g id="clust1" class="cluster">
<title>cluster_UserinterfaceModule</title>
<polygon fill="none" stroke="#000000" stroke-dasharray="1,5" points="52,-70 52,-268 444,-268 444,-70 52,-70"/>
</g>
<g id="clust2" class="cluster">
<title>cluster_UserinterfaceModule_declarations</title>
<polygon fill="none" stroke="#000000" points="264,-78 264,-130 436,-130 436,-78 264,-78"/>
</g>
<g id="clust4" class="cluster">
<title>cluster_UserinterfaceModule_imports</title>
<polygon fill="none" stroke="#000000" points="60,-78 60,-130 256,-130 256,-78 60,-78"/>
</g>
<g id="clust5" class="cluster">
<title>cluster_UserinterfaceModule_exports</title>
<polygon fill="none" stroke="#000000" points="165,-208 165,-260 341,-260 341,-208 165,-208"/>
</g>
<!-- UserinterfaceComponent -->
<g id="node1" class="node">
<title>UserinterfaceComponent</title>
<polygon fill="#ffffb3" stroke="#000000" points="428.2199,-122 271.7801,-122 271.7801,-86 428.2199,-86 428.2199,-122"/>
<text text-anchor="middle" x="350" y="-99.8" font-family="Times,serif" font-size="14.00" fill="#000000">UserinterfaceComponent</text>
</g>
<!-- UserinterfaceModule -->
<g id="node2" class="node">
<title>UserinterfaceModule</title>
<polygon fill="#8dd3c7" stroke="#000000" points="320.437,-187 317.437,-191 296.437,-191 293.437,-187 185.563,-187 185.563,-151 320.437,-151 320.437,-187"/>
<text text-anchor="middle" x="253" y="-164.8" font-family="Times,serif" font-size="14.00" fill="#000000">UserinterfaceModule</text>
</g>
<!-- UserinterfaceComponent&#45;&gt;UserinterfaceModule -->
<g id="edge1" class="edge">
<title>UserinterfaceComponent&#45;&gt;UserinterfaceModule</title>
<path fill="none" stroke="#000000" d="M296.0544,-122.1061C296.0544,-122.1061 296.0544,-140.991 296.0544,-140.991"/>
<polygon fill="#000000" stroke="#000000" points="292.5544,-140.9909 296.0544,-150.991 299.5544,-140.991 292.5544,-140.9909"/>
</g>
<!-- UserinterfaceComponent  -->
<g id="node4" class="node">
<title>UserinterfaceComponent </title>
<polygon fill="#fb8072" stroke="#000000" points="333.2198,-252 172.7802,-252 172.7802,-216 333.2198,-216 333.2198,-252"/>
<text text-anchor="middle" x="253" y="-229.8" font-family="Times,serif" font-size="14.00" fill="#000000">UserinterfaceComponent </text>
</g>
<!-- UserinterfaceModule&#45;&gt;UserinterfaceComponent  -->
<g id="edge3" class="edge">
<title>UserinterfaceModule&#45;&gt;UserinterfaceComponent </title>
<path fill="none" stroke="#000000" stroke-dasharray="5,2" d="M253,-187.1061C253,-187.1061 253,-205.991 253,-205.991"/>
<polygon fill="#000000" stroke="#000000" points="249.5001,-205.9909 253,-215.991 256.5001,-205.991 249.5001,-205.9909"/>
</g>
<!-- UserinterfaceRoutingModule -->
<g id="node3" class="node">
<title>UserinterfaceRoutingModule</title>
<polygon fill="#8dd3c7" stroke="#000000" points="248.0548,-122 245.0548,-126 224.0548,-126 221.0548,-122 67.9452,-122 67.9452,-86 248.0548,-86 248.0548,-122"/>
<text text-anchor="middle" x="158" y="-99.8" font-family="Times,serif" font-size="14.00" fill="#000000">UserinterfaceRoutingModule</text>
</g>
<!-- UserinterfaceRoutingModule&#45;&gt;UserinterfaceModule -->
<g id="edge2" class="edge">
<title>UserinterfaceRoutingModule&#45;&gt;UserinterfaceModule</title>
<path fill="none" stroke="#000000" d="M216.7795,-122.1061C216.7795,-122.1061 216.7795,-140.991 216.7795,-140.991"/>
<polygon fill="#000000" stroke="#000000" points="213.2795,-140.9909 216.7795,-150.991 220.2795,-140.991 213.2795,-140.9909"/>
</g>
</g>
</svg>
