<?xml version="1.0" encoding="UTF-8" standalone="no"?>
<!DOCTYPE svg PUBLIC "-//W3C//DTD SVG 1.1//EN"
 "http://www.w3.org/Graphics/SVG/1.1/DTD/svg11.dtd">
<!-- Generated by graphviz version 2.40.1 (20161225.0304)
 -->
<!-- Title: dependencies Pages: 1 -->
<svg width="848pt" height="211pt"
 viewBox="0.00 0.00 848.00 211.00" xmlns="http://www.w3.org/2000/svg" xmlns:xlink="http://www.w3.org/1999/xlink">
<g id="graph0" class="graph" transform="scale(1 1) rotate(0) translate(4 207)">
<title>dependencies</title>
<polygon fill="#ffffff" stroke="transparent" points="-4,4 -4,-207 844,-207 844,4 -4,4"/>
<text text-anchor="start" x="399.0091" y="-42.4" font-family="sans-serif" font-weight="bold" font-size="14.00" fill="#000000">Legend</text>
<polygon fill="#ffffb3" stroke="transparent" points="186,-10 186,-30 206,-30 206,-10 186,-10"/>
<text text-anchor="start" x="209.629" y="-15.4" font-family="sans-serif" font-size="14.00" fill="#000000"> &#160;Declarations</text>
<polygon fill="#8dd3c7" stroke="transparent" points="299,-10 299,-30 319,-30 319,-10 299,-10"/>
<text text-anchor="start" x="322.7251" y="-15.4" font-family="sans-serif" font-size="14.00" fill="#000000"> &#160;Module</text>
<polygon fill="#80b1d3" stroke="transparent" points="385,-10 385,-30 405,-30 405,-10 385,-10"/>
<text text-anchor="start" x="408.7812" y="-15.4" font-family="sans-serif" font-size="14.00" fill="#000000"> &#160;Bootstrap</text>
<polygon fill="#fdb462" stroke="transparent" points="482,-10 482,-30 502,-30 502,-10 482,-10"/>
<text text-anchor="start" x="505.6732" y="-15.4" font-family="sans-serif" font-size="14.00" fill="#000000"> &#160;Providers</text>
<polygon fill="#fb8072" stroke="transparent" points="578,-10 578,-30 598,-30 598,-10 578,-10"/>
<text text-anchor="start" x="601.7258" y="-15.4" font-family="sans-serif" font-size="14.00" fill="#000000"> &#160;Exports</text>
<g id="clust1" class="cluster">
<title>cluster_AuthModule</title>
<polygon fill="none" stroke="#000000" stroke-dasharray="1,5" points="8,-70 8,-195 832,-195 832,-70 8,-70"/>
</g>
<g id="clust2" class="cluster">
<title>cluster_AuthModule_declarations</title>
<polygon fill="none" stroke="#000000" points="286,-78 286,-130 824,-130 824,-78 286,-78"/>
</g>
<g id="clust7" class="cluster">
<title>cluster_AuthModule_imports</title>
<polygon fill="none" stroke="#000000" points="16,-78 16,-130 278,-130 278,-78 16,-78"/>
</g>
<!-- ForgotComponent -->
<g id="node1" class="node">
<title>ForgotComponent</title>
<polygon fill="#ffffb3" stroke="#000000" points="816.1667,-122 697.8333,-122 697.8333,-86 816.1667,-86 816.1667,-122"/>
<text text-anchor="middle" x="757" y="-99.8" font-family="Times,serif" font-size="14.00" fill="#000000">ForgotComponent</text>
</g>
<!-- AuthModule -->
<g id="node5" class="node">
<title>AuthModule</title>
<polygon fill="#8dd3c7" stroke="#000000" points="465.5482,-187 462.5482,-191 441.5482,-191 438.5482,-187 378.4518,-187 378.4518,-151 465.5482,-151 465.5482,-187"/>
<text text-anchor="middle" x="422" y="-164.8" font-family="Times,serif" font-size="14.00" fill="#000000">AuthModule</text>
</g>
<!-- ForgotComponent&#45;&gt;AuthModule -->
<g id="edge1" class="edge">
<title>ForgotComponent&#45;&gt;AuthModule</title>
<path fill="none" stroke="#000000" d="M757,-122.2843C757,-143.3211 757,-175 757,-175 757,-175 475.7954,-175 475.7954,-175"/>
<polygon fill="#000000" stroke="#000000" points="475.7954,-171.5001 465.7954,-175 475.7954,-178.5001 475.7954,-171.5001"/>
</g>
<!-- LoginComponent -->
<g id="node2" class="node">
<title>LoginComponent</title>
<polygon fill="#ffffb3" stroke="#000000" points="679.2758,-122 564.7242,-122 564.7242,-86 679.2758,-86 679.2758,-122"/>
<text text-anchor="middle" x="622" y="-99.8" font-family="Times,serif" font-size="14.00" fill="#000000">LoginComponent</text>
</g>
<!-- LoginComponent&#45;&gt;AuthModule -->
<g id="edge2" class="edge">
<title>LoginComponent&#45;&gt;AuthModule</title>
<path fill="none" stroke="#000000" d="M622,-122.0225C622,-139.3734 622,-163 622,-163 622,-163 475.8908,-163 475.8908,-163"/>
<polygon fill="#000000" stroke="#000000" points="475.8909,-159.5001 465.8908,-163 475.8908,-166.5001 475.8909,-159.5001"/>
</g>
<!-- ResetComponent -->
<g id="node3" class="node">
<title>ResetComponent</title>
<polygon fill="#ffffb3" stroke="#000000" points="546.4342,-122 433.5658,-122 433.5658,-86 546.4342,-86 546.4342,-122"/>
<text text-anchor="middle" x="490" y="-99.8" font-family="Times,serif" font-size="14.00" fill="#000000">ResetComponent</text>
</g>
<!-- ResetComponent&#45;&gt;AuthModule -->
<g id="edge3" class="edge">
<title>ResetComponent&#45;&gt;AuthModule</title>
<path fill="none" stroke="#000000" d="M449.7784,-122.1061C449.7784,-122.1061 449.7784,-140.991 449.7784,-140.991"/>
<polygon fill="#000000" stroke="#000000" points="446.2785,-140.9909 449.7784,-150.991 453.2785,-140.991 446.2785,-140.9909"/>
</g>
<!-- SignupComponent -->
<g id="node4" class="node">
<title>SignupComponent</title>
<polygon fill="#ffffb3" stroke="#000000" points="415.5056,-122 294.4944,-122 294.4944,-86 415.5056,-86 415.5056,-122"/>
<text text-anchor="middle" x="355" y="-99.8" font-family="Times,serif" font-size="14.00" fill="#000000">SignupComponent</text>
</g>
<!-- SignupComponent&#45;&gt;AuthModule -->
<g id="edge4" class="edge">
<title>SignupComponent&#45;&gt;AuthModule</title>
<path fill="none" stroke="#000000" d="M396.8647,-122.1061C396.8647,-122.1061 396.8647,-140.991 396.8647,-140.991"/>
<polygon fill="#000000" stroke="#000000" points="393.3647,-140.9909 396.8647,-150.991 400.3647,-140.991 393.3647,-140.9909"/>
</g>
<!-- AuthRoutingModule -->
<g id="node6" class="node">
<title>AuthRoutingModule</title>
<polygon fill="#8dd3c7" stroke="#000000" points="270.1652,-122 267.1652,-126 246.1652,-126 243.1652,-122 137.8348,-122 137.8348,-86 270.1652,-86 270.1652,-122"/>
<text text-anchor="middle" x="204" y="-99.8" font-family="Times,serif" font-size="14.00" fill="#000000">AuthRoutingModule</text>
</g>
<!-- AuthRoutingModule&#45;&gt;AuthModule -->
<g id="edge5" class="edge">
<title>AuthRoutingModule&#45;&gt;AuthModule</title>
<path fill="none" stroke="#000000" d="M204,-122.0225C204,-139.3734 204,-163 204,-163 204,-163 368.4084,-163 368.4084,-163"/>
<polygon fill="#000000" stroke="#000000" points="368.4084,-166.5001 378.4084,-163 368.4084,-159.5001 368.4084,-166.5001"/>
</g>
<!-- FormsModule -->
<g id="node7" class="node">
<title>FormsModule</title>
<polygon fill="#8dd3c7" stroke="#000000" points="119.8288,-122 116.8288,-126 95.8288,-126 92.8288,-122 24.1712,-122 24.1712,-86 119.8288,-86 119.8288,-122"/>
<text text-anchor="middle" x="72" y="-99.8" font-family="Times,serif" font-size="14.00" fill="#000000">FormsModule</text>
</g>
<!-- FormsModule&#45;&gt;AuthModule -->
<g id="edge6" class="edge">
<title>FormsModule&#45;&gt;AuthModule</title>
<path fill="none" stroke="#000000" d="M72,-122.2843C72,-143.3211 72,-175 72,-175 72,-175 368.3799,-175 368.3799,-175"/>
<polygon fill="#000000" stroke="#000000" points="368.38,-178.5001 378.3799,-175 368.3799,-171.5001 368.38,-178.5001"/>
</g>
</g>
</svg>
