<?xml version="1.0" encoding="UTF-8" standalone="no"?>
<!DOCTYPE svg PUBLIC "-//W3C//DTD SVG 1.1//EN"
 "http://www.w3.org/Graphics/SVG/1.1/DTD/svg11.dtd">
<!-- Generated by graphviz version 2.40.1 (20161225.0304)
 -->
<!-- Title: dependencies Pages: 1 -->
<svg width="504pt" height="284pt"
 viewBox="0.00 0.00 504.00 284.00" xmlns="http://www.w3.org/2000/svg" xmlns:xlink="http://www.w3.org/1999/xlink">
<g id="graph0" class="graph" transform="scale(1 1) rotate(0) translate(4 280)">
<title>dependencies</title>
<polygon fill="#ffffff" stroke="transparent" points="-4,4 -4,-280 500,-280 500,4 -4,4"/>
<text text-anchor="start" x="227.0091" y="-42.4" font-family="sans-serif" font-weight="bold" font-size="14.00" fill="#000000">Legend</text>
<polygon fill="#ffffb3" stroke="transparent" points="14,-10 14,-30 34,-30 34,-10 14,-10"/>
<text text-anchor="start" x="37.629" y="-15.4" font-family="sans-serif" font-size="14.00" fill="#000000"> &#160;Declarations</text>
<polygon fill="#8dd3c7" stroke="transparent" points="127,-10 127,-30 147,-30 147,-10 127,-10"/>
<text text-anchor="start" x="150.7251" y="-15.4" font-family="sans-serif" font-size="14.00" fill="#000000"> &#160;Module</text>
<polygon fill="#80b1d3" stroke="transparent" points="213,-10 213,-30 233,-30 233,-10 213,-10"/>
<text text-anchor="start" x="236.7812" y="-15.4" font-family="sans-serif" font-size="14.00" fill="#000000"> &#160;Bootstrap</text>
<polygon fill="#fdb462" stroke="transparent" points="310,-10 310,-30 330,-30 330,-10 310,-10"/>
<text text-anchor="start" x="333.6732" y="-15.4" font-family="sans-serif" font-size="14.00" fill="#000000"> &#160;Providers</text>
<polygon fill="#fb8072" stroke="transparent" points="406,-10 406,-30 426,-30 426,-10 406,-10"/>
<text text-anchor="start" x="429.7258" y="-15.4" font-family="sans-serif" font-size="14.00" fill="#000000"> &#160;Exports</text>
<g id="clust1" class="cluster">
<title>cluster_PagesModule</title>
<polygon fill="none" stroke="#000000" stroke-dasharray="1,5" points="36,-70 36,-268 460,-268 460,-70 36,-70"/>
</g>
<g id="clust2" class="cluster">
<title>cluster_PagesModule_declarations</title>
<polygon fill="none" stroke="#000000" points="322,-78 322,-130 452,-130 452,-78 322,-78"/>
</g>
<g id="clust4" class="cluster">
<title>cluster_PagesModule_imports</title>
<polygon fill="none" stroke="#000000" points="44,-78 44,-130 314,-130 314,-78 44,-78"/>
</g>
<g id="clust5" class="cluster">
<title>cluster_PagesModule_exports</title>
<polygon fill="none" stroke="#000000" points="170,-208 170,-260 304,-260 304,-208 170,-208"/>
</g>
<!-- PagesComponent -->
<g id="node1" class="node">
<title>PagesComponent</title>
<polygon fill="#ffffb3" stroke="#000000" points="443.9888,-122 330.0112,-122 330.0112,-86 443.9888,-86 443.9888,-122"/>
<text text-anchor="middle" x="387" y="-99.8" font-family="Times,serif" font-size="14.00" fill="#000000">PagesComponent</text>
</g>
<!-- PagesModule -->
<g id="node2" class="node">
<title>PagesModule</title>
<polygon fill="#8dd3c7" stroke="#000000" points="283.2064,-187 280.2064,-191 259.2064,-191 256.2064,-187 190.7936,-187 190.7936,-151 283.2064,-151 283.2064,-187"/>
<text text-anchor="middle" x="237" y="-164.8" font-family="Times,serif" font-size="14.00" fill="#000000">PagesModule</text>
</g>
<!-- PagesComponent&#45;&gt;PagesModule -->
<g id="edge1" class="edge">
<title>PagesComponent&#45;&gt;PagesModule</title>
<path fill="none" stroke="#000000" d="M387,-122.1061C387,-141.3391 387,-169 387,-169 387,-169 293.2289,-169 293.2289,-169"/>
<polygon fill="#000000" stroke="#000000" points="293.2289,-165.5001 283.2289,-169 293.2289,-172.5001 293.2289,-165.5001"/>
</g>
<!-- PagesComponent  -->
<g id="node5" class="node">
<title>PagesComponent </title>
<polygon fill="#fb8072" stroke="#000000" points="295.9898,-252 178.0102,-252 178.0102,-216 295.9898,-216 295.9898,-252"/>
<text text-anchor="middle" x="237" y="-229.8" font-family="Times,serif" font-size="14.00" fill="#000000">PagesComponent </text>
</g>
<!-- PagesModule&#45;&gt;PagesComponent  -->
<g id="edge4" class="edge">
<title>PagesModule&#45;&gt;PagesComponent </title>
<path fill="none" stroke="#000000" stroke-dasharray="5,2" d="M237,-187.1061C237,-187.1061 237,-205.991 237,-205.991"/>
<polygon fill="#000000" stroke="#000000" points="233.5001,-205.9909 237,-215.991 240.5001,-205.991 233.5001,-205.9909"/>
</g>
<!-- PagesRoutingModule -->
<g id="node3" class="node">
<title>PagesRoutingModule</title>
<polygon fill="#8dd3c7" stroke="#000000" points="305.8244,-122 302.8244,-126 281.8244,-126 278.8244,-122 168.1756,-122 168.1756,-86 305.8244,-86 305.8244,-122"/>
<text text-anchor="middle" x="237" y="-99.8" font-family="Times,serif" font-size="14.00" fill="#000000">PagesRoutingModule</text>
</g>
<!-- PagesRoutingModule&#45;&gt;PagesModule -->
<g id="edge2" class="edge">
<title>PagesRoutingModule&#45;&gt;PagesModule</title>
<path fill="none" stroke="#000000" d="M237,-122.1061C237,-122.1061 237,-140.991 237,-140.991"/>
<polygon fill="#000000" stroke="#000000" points="233.5001,-140.9909 237,-150.991 240.5001,-140.991 233.5001,-140.9909"/>
</g>
<!-- SharedModule -->
<g id="node4" class="node">
<title>SharedModule</title>
<polygon fill="#8dd3c7" stroke="#000000" points="150.4231,-122 147.4231,-126 126.4231,-126 123.4231,-122 51.5769,-122 51.5769,-86 150.4231,-86 150.4231,-122"/>
<text text-anchor="middle" x="101" y="-99.8" font-family="Times,serif" font-size="14.00" fill="#000000">SharedModule</text>
</g>
<!-- SharedModule&#45;&gt;PagesModule -->
<g id="edge3" class="edge">
<title>SharedModule&#45;&gt;PagesModule</title>
<path fill="none" stroke="#000000" d="M101,-122.1061C101,-141.3391 101,-169 101,-169 101,-169 180.5769,-169 180.5769,-169"/>
<polygon fill="#000000" stroke="#000000" points="180.5769,-172.5001 190.5769,-169 180.5769,-165.5001 180.5769,-172.5001"/>
</g>
</g>
</svg>
