<?xml version="1.0" encoding="UTF-8" standalone="no"?>
<!DOCTYPE svg PUBLIC "-//W3C//DTD SVG 1.1//EN"
 "http://www.w3.org/Graphics/SVG/1.1/DTD/svg11.dtd">
<!-- Generated by graphviz version 2.40.1 (20161225.0304)
 -->
<!-- Title: dependencies Pages: 1 -->
<svg width="504pt" height="284pt"
 viewBox="0.00 0.00 504.00 284.00" xmlns="http://www.w3.org/2000/svg" xmlns:xlink="http://www.w3.org/1999/xlink">
<g id="graph0" class="graph" transform="scale(1 1) rotate(0) translate(4 280)">
<title>dependencies</title>
<polygon fill="#ffffff" stroke="transparent" points="-4,4 -4,-280 500,-280 500,4 -4,4"/>
<text text-anchor="start" x="227.0091" y="-42.4" font-family="sans-serif" font-weight="bold" font-size="14.00" fill="#000000">Legend</text>
<polygon fill="#ffffb3" stroke="transparent" points="14,-10 14,-30 34,-30 34,-10 14,-10"/>
<text text-anchor="start" x="37.629" y="-15.4" font-family="sans-serif" font-size="14.00" fill="#000000"> &#160;Declarations</text>
<polygon fill="#8dd3c7" stroke="transparent" points="127,-10 127,-30 147,-30 147,-10 127,-10"/>
<text text-anchor="start" x="150.7251" y="-15.4" font-family="sans-serif" font-size="14.00" fill="#000000"> &#160;Module</text>
<polygon fill="#80b1d3" stroke="transparent" points="213,-10 213,-30 233,-30 233,-10 213,-10"/>
<text text-anchor="start" x="236.7812" y="-15.4" font-family="sans-serif" font-size="14.00" fill="#000000"> &#160;Bootstrap</text>
<polygon fill="#fdb462" stroke="transparent" points="310,-10 310,-30 330,-30 330,-10 310,-10"/>
<text text-anchor="start" x="333.6732" y="-15.4" font-family="sans-serif" font-size="14.00" fill="#000000"> &#160;Providers</text>
<polygon fill="#fb8072" stroke="transparent" points="406,-10 406,-30 426,-30 426,-10 406,-10"/>
<text text-anchor="start" x="429.7258" y="-15.4" font-family="sans-serif" font-size="14.00" fill="#000000"> &#160;Exports</text>
<g id="clust1" class="cluster">
<title>cluster_StatsModule</title>
<polygon fill="none" stroke="#000000" stroke-dasharray="1,5" points="100,-70 100,-268 396,-268 396,-70 100,-70"/>
</g>
<g id="clust2" class="cluster">
<title>cluster_StatsModule_declarations</title>
<polygon fill="none" stroke="#000000" points="264,-78 264,-130 388,-130 388,-78 264,-78"/>
</g>
<g id="clust4" class="cluster">
<title>cluster_StatsModule_imports</title>
<polygon fill="none" stroke="#000000" points="108,-78 108,-130 256,-130 256,-78 108,-78"/>
</g>
<g id="clust5" class="cluster">
<title>cluster_StatsModule_exports</title>
<polygon fill="none" stroke="#000000" points="189,-208 189,-260 317,-260 317,-208 189,-208"/>
</g>
<!-- StatsComponent -->
<g id="node1" class="node">
<title>StatsComponent</title>
<polygon fill="#ffffb3" stroke="#000000" points="380.0563,-122 271.9437,-122 271.9437,-86 380.0563,-86 380.0563,-122"/>
<text text-anchor="middle" x="326" y="-99.8" font-family="Times,serif" font-size="14.00" fill="#000000">StatsComponent</text>
</g>
<!-- StatsModule -->
<g id="node2" class="node">
<title>StatsModule</title>
<polygon fill="#8dd3c7" stroke="#000000" points="296.2731,-187 293.2731,-191 272.2731,-191 269.2731,-187 209.7269,-187 209.7269,-151 296.2731,-151 296.2731,-187"/>
<text text-anchor="middle" x="253" y="-164.8" font-family="Times,serif" font-size="14.00" fill="#000000">StatsModule</text>
</g>
<!-- StatsComponent&#45;&gt;StatsModule -->
<g id="edge1" class="edge">
<title>StatsComponent&#45;&gt;StatsModule</title>
<path fill="none" stroke="#000000" d="M284.0544,-122.1061C284.0544,-122.1061 284.0544,-140.991 284.0544,-140.991"/>
<polygon fill="#000000" stroke="#000000" points="280.5544,-140.9909 284.0544,-150.991 287.5544,-140.991 280.5544,-140.9909"/>
</g>
<!-- StatsComponent  -->
<g id="node4" class="node">
<title>StatsComponent </title>
<polygon fill="#fb8072" stroke="#000000" points="309.0554,-252 196.9446,-252 196.9446,-216 309.0554,-216 309.0554,-252"/>
<text text-anchor="middle" x="253" y="-229.8" font-family="Times,serif" font-size="14.00" fill="#000000">StatsComponent </text>
</g>
<!-- StatsModule&#45;&gt;StatsComponent  -->
<g id="edge3" class="edge">
<title>StatsModule&#45;&gt;StatsComponent </title>
<path fill="none" stroke="#000000" stroke-dasharray="5,2" d="M253,-187.1061C253,-187.1061 253,-205.991 253,-205.991"/>
<polygon fill="#000000" stroke="#000000" points="249.5001,-205.9909 253,-215.991 256.5001,-205.991 249.5001,-205.9909"/>
</g>
<!-- StatsRoutingModule -->
<g id="node3" class="node">
<title>StatsRoutingModule</title>
<polygon fill="#8dd3c7" stroke="#000000" points="247.8906,-122 244.8906,-126 223.8906,-126 220.8906,-122 116.1094,-122 116.1094,-86 247.8906,-86 247.8906,-122"/>
<text text-anchor="middle" x="182" y="-99.8" font-family="Times,serif" font-size="14.00" fill="#000000">StatsRoutingModule</text>
</g>
<!-- StatsRoutingModule&#45;&gt;StatsModule -->
<g id="edge2" class="edge">
<title>StatsRoutingModule&#45;&gt;StatsModule</title>
<path fill="none" stroke="#000000" d="M228.7795,-122.1061C228.7795,-122.1061 228.7795,-140.991 228.7795,-140.991"/>
<polygon fill="#000000" stroke="#000000" points="225.2795,-140.9909 228.7795,-150.991 232.2795,-140.991 225.2795,-140.9909"/>
</g>
</g>
</svg>
