<?xml version="1.0" encoding="UTF-8" standalone="no"?>
<!DOCTYPE svg PUBLIC "-//W3C//DTD SVG 1.1//EN"
 "http://www.w3.org/Graphics/SVG/1.1/DTD/svg11.dtd">
<!-- Generated by graphviz version 2.40.1 (20161225.0304)
 -->
<!-- Title: dependencies Pages: 1 -->
<svg width="504pt" height="284pt"
 viewBox="0.00 0.00 504.00 284.00" xmlns="http://www.w3.org/2000/svg" xmlns:xlink="http://www.w3.org/1999/xlink">
<g id="graph0" class="graph" transform="scale(1 1) rotate(0) translate(4 280)">
<title>dependencies</title>
<polygon fill="#ffffff" stroke="transparent" points="-4,4 -4,-280 500,-280 500,4 -4,4"/>
<text text-anchor="start" x="227.0091" y="-42.4" font-family="sans-serif" font-weight="bold" font-size="14.00" fill="#000000">Legend</text>
<polygon fill="#ffffb3" stroke="transparent" points="14,-10 14,-30 34,-30 34,-10 14,-10"/>
<text text-anchor="start" x="37.629" y="-15.4" font-family="sans-serif" font-size="14.00" fill="#000000"> &#160;Declarations</text>
<polygon fill="#8dd3c7" stroke="transparent" points="127,-10 127,-30 147,-30 147,-10 127,-10"/>
<text text-anchor="start" x="150.7251" y="-15.4" font-family="sans-serif" font-size="14.00" fill="#000000"> &#160;Module</text>
<polygon fill="#80b1d3" stroke="transparent" points="213,-10 213,-30 233,-30 233,-10 213,-10"/>
<text text-anchor="start" x="236.7812" y="-15.4" font-family="sans-serif" font-size="14.00" fill="#000000"> &#160;Bootstrap</text>
<polygon fill="#fdb462" stroke="transparent" points="310,-10 310,-30 330,-30 330,-10 310,-10"/>
<text text-anchor="start" x="333.6732" y="-15.4" font-family="sans-serif" font-size="14.00" fill="#000000"> &#160;Providers</text>
<polygon fill="#fb8072" stroke="transparent" points="406,-10 406,-30 426,-30 426,-10 406,-10"/>
<text text-anchor="start" x="429.7258" y="-15.4" font-family="sans-serif" font-size="14.00" fill="#000000"> &#160;Exports</text>
<g id="clust1" class="cluster">
<title>cluster_CardsModule</title>
<polygon fill="none" stroke="#000000" stroke-dasharray="1,5" points="94,-70 94,-268 402,-268 402,-70 94,-70"/>
</g>
<g id="clust2" class="cluster">
<title>cluster_CardsModule_declarations</title>
<polygon fill="none" stroke="#000000" points="264,-78 264,-130 394,-130 394,-78 264,-78"/>
</g>
<g id="clust4" class="cluster">
<title>cluster_CardsModule_imports</title>
<polygon fill="none" stroke="#000000" points="102,-78 102,-130 256,-130 256,-78 102,-78"/>
</g>
<g id="clust5" class="cluster">
<title>cluster_CardsModule_exports</title>
<polygon fill="none" stroke="#000000" points="186,-208 186,-260 320,-260 320,-208 186,-208"/>
</g>
<!-- CardsComponent -->
<g id="node1" class="node">
<title>CardsComponent</title>
<polygon fill="#ffffb3" stroke="#000000" points="385.9888,-122 272.0112,-122 272.0112,-86 385.9888,-86 385.9888,-122"/>
<text text-anchor="middle" x="329" y="-99.8" font-family="Times,serif" font-size="14.00" fill="#000000">CardsComponent</text>
</g>
<!-- CardsModule -->
<g id="node2" class="node">
<title>CardsModule</title>
<polygon fill="#8dd3c7" stroke="#000000" points="299.2064,-187 296.2064,-191 275.2064,-191 272.2064,-187 206.7936,-187 206.7936,-151 299.2064,-151 299.2064,-187"/>
<text text-anchor="middle" x="253" y="-164.8" font-family="Times,serif" font-size="14.00" fill="#000000">CardsModule</text>
</g>
<!-- CardsComponent&#45;&gt;CardsModule -->
<g id="edge1" class="edge">
<title>CardsComponent&#45;&gt;CardsModule</title>
<path fill="none" stroke="#000000" d="M285.5544,-122.1061C285.5544,-122.1061 285.5544,-140.991 285.5544,-140.991"/>
<polygon fill="#000000" stroke="#000000" points="282.0544,-140.9909 285.5544,-150.991 289.0544,-140.991 282.0544,-140.9909"/>
</g>
<!-- CardsComponent  -->
<g id="node4" class="node">
<title>CardsComponent </title>
<polygon fill="#fb8072" stroke="#000000" points="311.9898,-252 194.0102,-252 194.0102,-216 311.9898,-216 311.9898,-252"/>
<text text-anchor="middle" x="253" y="-229.8" font-family="Times,serif" font-size="14.00" fill="#000000">CardsComponent </text>
</g>
<!-- CardsModule&#45;&gt;CardsComponent  -->
<g id="edge3" class="edge">
<title>CardsModule&#45;&gt;CardsComponent </title>
<path fill="none" stroke="#000000" stroke-dasharray="5,2" d="M253,-187.1061C253,-187.1061 253,-205.991 253,-205.991"/>
<polygon fill="#000000" stroke="#000000" points="249.5001,-205.9909 253,-215.991 256.5001,-205.991 249.5001,-205.9909"/>
</g>
<!-- CardsRoutingModule -->
<g id="node3" class="node">
<title>CardsRoutingModule</title>
<polygon fill="#8dd3c7" stroke="#000000" points="247.8244,-122 244.8244,-126 223.8244,-126 220.8244,-122 110.1756,-122 110.1756,-86 247.8244,-86 247.8244,-122"/>
<text text-anchor="middle" x="179" y="-99.8" font-family="Times,serif" font-size="14.00" fill="#000000">CardsRoutingModule</text>
</g>
<!-- CardsRoutingModule&#45;&gt;CardsModule -->
<g id="edge2" class="edge">
<title>CardsRoutingModule&#45;&gt;CardsModule</title>
<path fill="none" stroke="#000000" d="M227.2795,-122.1061C227.2795,-122.1061 227.2795,-140.991 227.2795,-140.991"/>
<polygon fill="#000000" stroke="#000000" points="223.7795,-140.9909 227.2795,-150.991 230.7795,-140.991 223.7795,-140.9909"/>
</g>
</g>
</svg>
