<?xml version="1.0" encoding="UTF-8" standalone="no"?>
<!DOCTYPE svg PUBLIC "-//W3C//DTD SVG 1.1//EN"
 "http://www.w3.org/Graphics/SVG/1.1/DTD/svg11.dtd">
<!-- Generated by graphviz version 2.40.1 (20161225.0304)
 -->
<!-- Title: dependencies Pages: 1 -->
<svg width="504pt" height="284pt"
 viewBox="0.00 0.00 504.00 284.00" xmlns="http://www.w3.org/2000/svg" xmlns:xlink="http://www.w3.org/1999/xlink">
<g id="graph0" class="graph" transform="scale(1 1) rotate(0) translate(4 280)">
<title>dependencies</title>
<polygon fill="#ffffff" stroke="transparent" points="-4,4 -4,-280 500,-280 500,4 -4,4"/>
<text text-anchor="start" x="227.0091" y="-42.4" font-family="sans-serif" font-weight="bold" font-size="14.00" fill="#000000">Legend</text>
<polygon fill="#ffffb3" stroke="transparent" points="14,-10 14,-30 34,-30 34,-10 14,-10"/>
<text text-anchor="start" x="37.629" y="-15.4" font-family="sans-serif" font-size="14.00" fill="#000000"> &#160;Declarations</text>
<polygon fill="#8dd3c7" stroke="transparent" points="127,-10 127,-30 147,-30 147,-10 127,-10"/>
<text text-anchor="start" x="150.7251" y="-15.4" font-family="sans-serif" font-size="14.00" fill="#000000"> &#160;Module</text>
<polygon fill="#80b1d3" stroke="transparent" points="213,-10 213,-30 233,-30 233,-10 213,-10"/>
<text text-anchor="start" x="236.7812" y="-15.4" font-family="sans-serif" font-size="14.00" fill="#000000"> &#160;Bootstrap</text>
<polygon fill="#fdb462" stroke="transparent" points="310,-10 310,-30 330,-30 330,-10 310,-10"/>
<text text-anchor="start" x="333.6732" y="-15.4" font-family="sans-serif" font-size="14.00" fill="#000000"> &#160;Providers</text>
<polygon fill="#fb8072" stroke="transparent" points="406,-10 406,-30 426,-30 426,-10 406,-10"/>
<text text-anchor="start" x="429.7258" y="-15.4" font-family="sans-serif" font-size="14.00" fill="#000000"> &#160;Exports</text>
<g id="clust1" class="cluster">
<title>cluster_IconsModule</title>
<polygon fill="none" stroke="#000000" stroke-dasharray="1,5" points="97,-70 97,-268 399,-268 399,-70 97,-70"/>
</g>
<g id="clust2" class="cluster">
<title>cluster_IconsModule_declarations</title>
<polygon fill="none" stroke="#000000" points="263,-78 263,-130 391,-130 391,-78 263,-78"/>
</g>
<g id="clust4" class="cluster">
<title>cluster_IconsModule_imports</title>
<polygon fill="none" stroke="#000000" points="105,-78 105,-130 255,-130 255,-78 105,-78"/>
</g>
<g id="clust5" class="cluster">
<title>cluster_IconsModule_exports</title>
<polygon fill="none" stroke="#000000" points="186,-208 186,-260 318,-260 318,-208 186,-208"/>
</g>
<!-- IconsComponent -->
<g id="node1" class="node">
<title>IconsComponent</title>
<polygon fill="#ffffb3" stroke="#000000" points="382.6527,-122 271.3473,-122 271.3473,-86 382.6527,-86 382.6527,-122"/>
<text text-anchor="middle" x="327" y="-99.8" font-family="Times,serif" font-size="14.00" fill="#000000">IconsComponent</text>
</g>
<!-- IconsModule -->
<g id="node2" class="node">
<title>IconsModule</title>
<polygon fill="#8dd3c7" stroke="#000000" points="296.8697,-187 293.8697,-191 272.8697,-191 269.8697,-187 207.1303,-187 207.1303,-151 296.8697,-151 296.8697,-187"/>
<text text-anchor="middle" x="252" y="-164.8" font-family="Times,serif" font-size="14.00" fill="#000000">IconsModule</text>
</g>
<!-- IconsComponent&#45;&gt;IconsModule -->
<g id="edge1" class="edge">
<title>IconsComponent&#45;&gt;IconsModule</title>
<path fill="none" stroke="#000000" d="M284.0544,-122.1061C284.0544,-122.1061 284.0544,-140.991 284.0544,-140.991"/>
<polygon fill="#000000" stroke="#000000" points="280.5544,-140.9909 284.0544,-150.991 287.5544,-140.991 280.5544,-140.9909"/>
</g>
<!-- IconsComponent  -->
<g id="node4" class="node">
<title>IconsComponent </title>
<polygon fill="#fb8072" stroke="#000000" points="309.6523,-252 194.3477,-252 194.3477,-216 309.6523,-216 309.6523,-252"/>
<text text-anchor="middle" x="252" y="-229.8" font-family="Times,serif" font-size="14.00" fill="#000000">IconsComponent </text>
</g>
<!-- IconsModule&#45;&gt;IconsComponent  -->
<g id="edge3" class="edge">
<title>IconsModule&#45;&gt;IconsComponent </title>
<path fill="none" stroke="#000000" stroke-dasharray="5,2" d="M252,-187.1061C252,-187.1061 252,-205.991 252,-205.991"/>
<polygon fill="#000000" stroke="#000000" points="248.5001,-205.9909 252,-215.991 255.5001,-205.991 248.5001,-205.9909"/>
</g>
<!-- IconsRoutingModule -->
<g id="node3" class="node">
<title>IconsRoutingModule</title>
<polygon fill="#8dd3c7" stroke="#000000" points="247.4874,-122 244.4874,-126 223.4874,-126 220.4874,-122 112.5126,-122 112.5126,-86 247.4874,-86 247.4874,-122"/>
<text text-anchor="middle" x="180" y="-99.8" font-family="Times,serif" font-size="14.00" fill="#000000">IconsRoutingModule</text>
</g>
<!-- IconsRoutingModule&#45;&gt;IconsModule -->
<g id="edge2" class="edge">
<title>IconsRoutingModule&#45;&gt;IconsModule</title>
<path fill="none" stroke="#000000" d="M227.2795,-122.1061C227.2795,-122.1061 227.2795,-140.991 227.2795,-140.991"/>
<polygon fill="#000000" stroke="#000000" points="223.7795,-140.9909 227.2795,-150.991 230.7795,-140.991 223.7795,-140.9909"/>
</g>
</g>
</svg>
