<?xml version="1.0" encoding="UTF-8" standalone="no"?>
<!DOCTYPE svg PUBLIC "-//W3C//DTD SVG 1.1//EN"
 "http://www.w3.org/Graphics/SVG/1.1/DTD/svg11.dtd">
<!-- Generated by graphviz version 2.40.1 (20161225.0304)
 -->
<!-- Title: dependencies Pages: 1 -->
<svg width="504pt" height="284pt"
 viewBox="0.00 0.00 504.00 284.00" xmlns="http://www.w3.org/2000/svg" xmlns:xlink="http://www.w3.org/1999/xlink">
<g id="graph0" class="graph" transform="scale(1 1) rotate(0) translate(4 280)">
<title>dependencies</title>
<polygon fill="#ffffff" stroke="transparent" points="-4,4 -4,-280 500,-280 500,4 -4,4"/>
<text text-anchor="start" x="227.0091" y="-42.4" font-family="sans-serif" font-weight="bold" font-size="14.00" fill="#000000">Legend</text>
<polygon fill="#ffffb3" stroke="transparent" points="14,-10 14,-30 34,-30 34,-10 14,-10"/>
<text text-anchor="start" x="37.629" y="-15.4" font-family="sans-serif" font-size="14.00" fill="#000000"> &#160;Declarations</text>
<polygon fill="#8dd3c7" stroke="transparent" points="127,-10 127,-30 147,-30 147,-10 127,-10"/>
<text text-anchor="start" x="150.7251" y="-15.4" font-family="sans-serif" font-size="14.00" fill="#000000"> &#160;Module</text>
<polygon fill="#80b1d3" stroke="transparent" points="213,-10 213,-30 233,-30 233,-10 213,-10"/>
<text text-anchor="start" x="236.7812" y="-15.4" font-family="sans-serif" font-size="14.00" fill="#000000"> &#160;Bootstrap</text>
<polygon fill="#fdb462" stroke="transparent" points="310,-10 310,-30 330,-30 330,-10 310,-10"/>
<text text-anchor="start" x="333.6732" y="-15.4" font-family="sans-serif" font-size="14.00" fill="#000000"> &#160;Providers</text>
<polygon fill="#fb8072" stroke="transparent" points="406,-10 406,-30 426,-30 426,-10 406,-10"/>
<text text-anchor="start" x="429.7258" y="-15.4" font-family="sans-serif" font-size="14.00" fill="#000000"> &#160;Exports</text>
<g id="clust1" class="cluster">
<title>cluster_ChartjsModule</title>
<polygon fill="none" stroke="#000000" stroke-dasharray="1,5" points="86,-70 86,-268 410,-268 410,-70 86,-70"/>
</g>
<g id="clust2" class="cluster">
<title>cluster_ChartjsModule_declarations</title>
<polygon fill="none" stroke="#000000" points="264,-78 264,-130 402,-130 402,-78 264,-78"/>
</g>
<g id="clust4" class="cluster">
<title>cluster_ChartjsModule_imports</title>
<polygon fill="none" stroke="#000000" points="94,-78 94,-130 256,-130 256,-78 94,-78"/>
</g>
<g id="clust5" class="cluster">
<title>cluster_ChartjsModule_exports</title>
<polygon fill="none" stroke="#000000" points="182,-208 182,-260 324,-260 324,-208 182,-208"/>
</g>
<!-- ChartjsComponent -->
<g id="node1" class="node">
<title>ChartjsComponent</title>
<polygon fill="#ffffb3" stroke="#000000" points="393.7702,-122 272.2298,-122 272.2298,-86 393.7702,-86 393.7702,-122"/>
<text text-anchor="middle" x="333" y="-99.8" font-family="Times,serif" font-size="14.00" fill="#000000">ChartjsComponent</text>
</g>
<!-- ChartjsModule -->
<g id="node2" class="node">
<title>ChartjsModule</title>
<polygon fill="#8dd3c7" stroke="#000000" points="302.9874,-187 299.9874,-191 278.9874,-191 275.9874,-187 203.0126,-187 203.0126,-151 302.9874,-151 302.9874,-187"/>
<text text-anchor="middle" x="253" y="-164.8" font-family="Times,serif" font-size="14.00" fill="#000000">ChartjsModule</text>
</g>
<!-- ChartjsComponent&#45;&gt;ChartjsModule -->
<g id="edge1" class="edge">
<title>ChartjsComponent&#45;&gt;ChartjsModule</title>
<path fill="none" stroke="#000000" d="M287.5544,-122.1061C287.5544,-122.1061 287.5544,-140.991 287.5544,-140.991"/>
<polygon fill="#000000" stroke="#000000" points="284.0544,-140.9909 287.5544,-150.991 291.0544,-140.991 284.0544,-140.9909"/>
</g>
<!-- ChartjsComponent  -->
<g id="node4" class="node">
<title>ChartjsComponent </title>
<polygon fill="#fb8072" stroke="#000000" points="315.7703,-252 190.2297,-252 190.2297,-216 315.7703,-216 315.7703,-252"/>
<text text-anchor="middle" x="253" y="-229.8" font-family="Times,serif" font-size="14.00" fill="#000000">ChartjsComponent </text>
</g>
<!-- ChartjsModule&#45;&gt;ChartjsComponent  -->
<g id="edge3" class="edge">
<title>ChartjsModule&#45;&gt;ChartjsComponent </title>
<path fill="none" stroke="#000000" stroke-dasharray="5,2" d="M253,-187.1061C253,-187.1061 253,-205.991 253,-205.991"/>
<polygon fill="#000000" stroke="#000000" points="249.5001,-205.9909 253,-215.991 256.5001,-205.991 249.5001,-205.9909"/>
</g>
<!-- ChartjsRoutingModule -->
<g id="node3" class="node">
<title>ChartjsRoutingModule</title>
<polygon fill="#8dd3c7" stroke="#000000" points="247.6052,-122 244.6052,-126 223.6052,-126 220.6052,-122 102.3948,-122 102.3948,-86 247.6052,-86 247.6052,-122"/>
<text text-anchor="middle" x="175" y="-99.8" font-family="Times,serif" font-size="14.00" fill="#000000">ChartjsRoutingModule</text>
</g>
<!-- ChartjsRoutingModule&#45;&gt;ChartjsModule -->
<g id="edge2" class="edge">
<title>ChartjsRoutingModule&#45;&gt;ChartjsModule</title>
<path fill="none" stroke="#000000" d="M225.2795,-122.1061C225.2795,-122.1061 225.2795,-140.991 225.2795,-140.991"/>
<polygon fill="#000000" stroke="#000000" points="221.7795,-140.9909 225.2795,-150.991 228.7795,-140.991 221.7795,-140.9909"/>
</g>
</g>
</svg>
